# xmcd CD database file
#
# Track frame offsets:
#	150
#	16415
#	33552
#	53239
#	86725
#	100507
#	124270
#	138342
#	149690
#	166320
#	183095
#	200087
#	223940
#
# Disc length: 3136 seconds
#
# Revision: 0
# Processed by: cddbd v1.4PL0 Copyright (c) Steve Scherf et al.
# Submitted via: CDex 1.40Release
#
DISCID=c00c3e0d
DTITLE=Randy Garibay - Chicano Blues Man
DYEAR=1900
DGENRE=Blues
TTITLE0=Still Singing The Blues
TTITLE1=To The Bone
TTITLE2=Cabeza
TTITLE3=You've Lost That Loving Feeling and Guantanamera
TTITLE4=Mean Ass Woman
TTITLE5=Funny Not Much
TTITLE6=Toke Y Toke
TTITLE7=Que Me Puede Ya Importar
TTITLE8=Fender Bender
TTITLE9=Movida
TTITLE10=Your Tender Lips
TTITLE11=I'd Give Anything I Could To Be In Texas
TTITLE12=Chicano U.S.A.
EXTD=ID3G: 0
EXTT0=
EXTT1=
EXTT2=
EXTT3=
EXTT4=
EXTT5=
EXTT6=
EXTT7=
EXTT8=
EXTT9=
EXTT10=
EXTT11=
EXTT12=
PLAYORDER=
